<svg width="60" height="60" viewBox="0 0 60 60" fill="none" xmlns="http://www.w3.org/2000/svg">
<g filter="url(#filter0_b_1_754)">
<rect width="60" height="60" rx="10" fill="black" fill-opacity="0.2"/>
</g>
<path d="M42.538 39.2196L40.8715 24.2196C40.8336 23.8755 40.67 23.5575 40.412 23.3266C40.1541 23.0958 39.82 22.9683 39.4738 22.9686H35.1343C35.0175 21.6877 34.426 20.4968 33.4761 19.6297C32.5263 18.7625 31.2865 18.2817 30.0004 18.2817C28.7142 18.2817 27.4745 18.7625 26.5246 19.6297C25.5747 20.4968 24.9832 21.6877 24.8664 22.9686H20.5269C20.1807 22.9683 19.8466 23.0958 19.5887 23.3266C19.3308 23.5575 19.1671 23.8755 19.1292 24.2196L17.4627 39.2196C17.4409 39.4161 17.4607 39.6151 17.521 39.8034C17.5813 39.9918 17.6806 40.1653 17.8125 40.3127C17.9444 40.46 18.1059 40.5779 18.2864 40.6586C18.467 40.7394 18.6625 40.7811 18.8603 40.7811H41.1403C41.3381 40.7811 41.5336 40.7394 41.7142 40.6587C41.8948 40.578 42.0563 40.4601 42.1882 40.3127C42.3201 40.1654 42.4194 39.9918 42.4797 39.8035C42.54 39.6151 42.5599 39.4161 42.538 39.2196ZM30.0004 19.2186C31.0376 19.22 32.0381 19.6029 32.8112 20.2945C33.5843 20.9861 34.0759 21.9379 34.1924 22.9686H25.8083C25.9248 21.9379 26.4164 20.9861 27.1895 20.2945C27.9626 19.6029 28.9631 19.22 30.0004 19.2186ZM41.4897 39.6875C41.4459 39.7369 41.3922 39.7764 41.3319 39.8033C41.2717 39.8302 41.2064 39.844 41.1404 39.8436H18.8603C18.7944 39.8436 18.7292 39.8297 18.669 39.8028C18.6088 39.7759 18.555 39.7366 18.511 39.6874C18.4671 39.6383 18.434 39.5805 18.4139 39.5177C18.3938 39.4549 18.3872 39.3886 18.3945 39.323L20.0611 24.323C20.0737 24.2084 20.1283 24.1024 20.2142 24.0255C20.3002 23.9485 20.4115 23.906 20.5269 23.9061H24.8441V27.1873C24.8441 27.3117 24.8935 27.4309 24.9814 27.5188C25.0693 27.6067 25.1885 27.6561 25.3129 27.6561C25.4372 27.6561 25.5564 27.6067 25.6443 27.5188C25.7322 27.4309 25.7816 27.3117 25.7816 27.1873V23.9061H34.2191V27.1873C34.2191 27.3117 34.2685 27.4309 34.3564 27.5188C34.4443 27.6067 34.5635 27.6561 34.6879 27.6561C34.8122 27.6561 34.9314 27.6067 35.0193 27.5188C35.1072 27.4309 35.1566 27.3117 35.1566 27.1873V23.9061H39.4738C39.5892 23.906 39.7005 23.9485 39.7865 24.0255C39.8724 24.1024 39.927 24.2084 39.9396 24.323L41.6063 39.323C41.6139 39.3886 41.6075 39.455 41.5873 39.5179C41.5672 39.5807 41.5339 39.6386 41.4897 39.6875Z" fill="white"/>
<circle cx="44" cy="20.8652" r="8" fill="#43FFD2"/>
<path d="M43.916 26.096C43.076 26.096 42.472 25.86 42.104 25.388C41.744 24.908 41.564 24.204 41.564 23.276H42.848C42.848 23.82 42.92 24.256 43.064 24.584C43.216 24.912 43.508 25.076 43.94 25.076C44.268 25.076 44.512 24.98 44.672 24.788C44.832 24.596 44.932 24.344 44.972 24.032C45.02 23.712 45.044 23.288 45.044 22.76C45.044 22.272 45.016 21.884 44.96 21.596C44.912 21.3 44.808 21.076 44.648 20.924C44.496 20.764 44.264 20.684 43.952 20.684C43.704 20.684 43.484 20.76 43.292 20.912C43.108 21.064 42.968 21.256 42.872 21.488H41.78V16.28H45.968V17.564H42.944L42.86 20.252C43.204 19.892 43.672 19.712 44.264 19.712C45.008 19.712 45.536 19.968 45.848 20.48C46.168 20.984 46.328 21.688 46.328 22.592C46.328 23.696 46.148 24.556 45.788 25.172C45.428 25.788 44.804 26.096 43.916 26.096Z" fill="#142B2B"/>
<defs>
<filter id="filter0_b_1_754" x="-20" y="-20" width="100" height="100" filterUnits="userSpaceOnUse" color-interpolation-filters="sRGB">
<feFlood flood-opacity="0" result="BackgroundImageFix"/>
<feGaussianBlur in="BackgroundImageFix" stdDeviation="10"/>
<feComposite in2="SourceAlpha" operator="in" result="effect1_backgroundBlur_1_754"/>
<feBlend mode="normal" in="SourceGraphic" in2="effect1_backgroundBlur_1_754" result="shape"/>
</filter>
</defs>
</svg>
